<?xml version="1.0" encoding="utf-8"?>
<!-- Generator: Adobe Illustrator 24.0.0, SVG Export Plug-In . SVG Version: 6.00 Build 0)  -->
<svg version="1.1" id="デザイン" xmlns="http://www.w3.org/2000/svg" xmlns:xlink="http://www.w3.org/1999/xlink" x="0px"
	 y="0px" viewBox="0 0 286 374" style="enable-background:new 0 0 286 374;" xml:space="preserve">
<style type="text/css">
	.st0{fill:#FFFFFF;}
</style>
<title>mv_h_01</title>
<g id="copy">
	<g>
		<path class="st0" d="M16.6,56.2L0.1,5.1h16.2l9.1,29.8l8.4-29.8h15.8L33.2,56.2v33.5H16.6V56.2z"/>
		<path class="st0" d="M80.1,83.8c-3.8-4.7-5.7-11.6-5.7-20.8V31.5c0-9.1,1.9-16,5.7-20.6S90.4,4,99.4,4c8.9,0,15.3,2.3,19.2,7
			s5.8,11.5,5.8,20.5v31.6c0,9.1-1.9,15.9-5.8,20.6s-10.3,7.1-19.2,7.1C90.4,90.9,84,88.5,80.1,83.8z M105.3,75.5
			c1.1-2.6,1.7-5.4,1.5-8.2v-40c0.1-2.8-0.4-5.6-1.5-8.1c-1-1.9-3-2.9-5.9-2.9c-2.9,0-4.9,1-5.9,2.9c-1.1,2.5-1.6,5.3-1.5,8.1v40
			c-0.1,2.8,0.4,5.7,1.5,8.3c1,2,3,2.9,6,2.9C102.5,78.5,104.4,77.5,105.3,75.5z"/>
		<path class="st0" d="M163.8,87.7c-3.5-2.1-6.2-5.4-7.5-9.3c-1.5-4-2.2-9.2-2.2-15.4v-58h17v60.3c-0.1,3.2,0.4,6.5,1.5,9.5
			c1,2.3,3,3.4,6.1,3.4s5.1-1.1,6.1-3.4c1.1-3.1,1.6-6.3,1.4-9.5V5.1h17v58c0,6.3-0.7,11.4-2.2,15.5c-1.3,3.9-4,7.2-7.6,9.3
			c-3.6,2.1-8.5,3.2-14.8,3.2S167.3,89.8,163.8,87.7z"/>
		<path class="st0" d="M233.9,5.1h22c9.1,0,16,1.7,20.6,5c4.6,3.3,6.9,9.1,6.9,17.4c0,5.5-0.8,10-2.3,13.3c-1.7,3.5-4.6,6.2-8.1,7.7
			l11.7,41.3h-17.7l-9.6-38.4H251v38.4h-17.1V5.1z M256.2,41.1c4,0,6.9-1,8.5-3c1.6-2,2.5-5.1,2.5-9.4c0-4.2-0.7-7.2-2.2-9.2
			s-4.1-2.9-7.9-2.9h-6v24.4H256.2z"/>
	</g>
	<g>
		<path class="st0" d="M9.8,189c-3.9-4.3-6-11-6.4-20l14.8-2.5c0.1,5.4,0.9,9.3,2.3,11.9c1.1,2.4,3.5,3.9,6.1,3.8
			c1.7,0.1,3.3-0.6,4.4-1.9c1-1.5,1.4-3.2,1.4-5c0.1-3-0.7-6-2.3-8.5c-2-2.9-4.3-5.5-7-7.7l-8.8-7.6c-3.2-2.7-5.9-5.9-8-9.5
			c-1.9-3.7-2.9-7.8-2.7-12c0-6.9,2.1-12.2,6.2-15.9s9.8-5.6,17-5.6c7.6,0,12.9,2.2,15.8,6.6c3,4.4,4.6,10.1,5,16.9l-15,2.2
			c-0.1-4.4-0.6-7.7-1.5-9.8c-0.7-2.1-2.7-3.4-4.9-3.2c-1.8-0.1-3.5,0.7-4.6,2.1c-1.1,1.5-1.7,3.3-1.6,5.1c-0.1,2.5,0.6,5,1.9,7.1
			c1.6,2.3,3.6,4.4,5.8,6.3l8.6,7.5c3.7,3.3,7,7.2,9.6,11.4c2.3,4.2,3.5,8.9,3.4,13.6c0.1,3.8-0.9,7.5-2.7,10.8
			c-1.8,3.2-4.5,5.8-7.7,7.5c-3.5,1.9-7.5,2.8-11.5,2.7C19.5,195.4,13.7,193.3,9.8,189z"/>
		<path class="st0" d="M69.9,109.6h18.3L98.6,163l11.1-53.4h17.7l1.6,84.6h-12.6l-1.4-57.5l-10.9,57.5H93.5l-11.2-57.8l-1.3,57.8
			H68.4L69.9,109.6z"/>
		<path class="st0" d="M152.1,109.6h17.1v84.7h-17.1V109.6z"/>
		<path class="st0" d="M192.5,109.6h17.1v73h20v11.7h-37.1V109.6z"/>
		<path class="st0" d="M248.2,109.6h36.9v11.9h-19.8V144h15.3v12h-15.3v26.6h20v11.7h-37.1V109.6z"/>
	</g>
	<g>
		<path class="st0" d="M4.9,296.2h15.2v30.5h13.1v-30.5h15.2v74.4H33.2v-33H20.1v33H4.9V296.2z"/>
		<path class="st0" d="M79.7,296.2h16.8l14.3,74.4h-14l-2.8-16.4H82.4l-2.8,16.4H65.3L79.7,296.2z M92.7,344.9l-4.5-30l-4.4,30H92.7
			z"/>
		<path class="st0" d="M127.6,296.2h23.6c12.9,0,19.3,7.1,19.3,21.4c0,7.5-1.8,12.9-5.5,16c-3.7,3.1-8.8,4.7-15.4,4.7h-7v32.3h-15
			V296.2z M148.1,327.8c3.3,0,5.4-0.8,6.5-2.3c1.1-1.5,1.6-4.2,1.7-8.1c0-2-0.1-4-0.6-5.9c-0.3-1.4-1.2-2.6-2.4-3.4
			c-1.6-0.9-3.5-1.3-5.4-1.2h-5.3v20.9L148.1,327.8z"/>
		<path class="st0" d="M187.4,296.2H211c12.9,0,19.3,7.1,19.3,21.4c0,7.5-1.8,12.9-5.5,16c-3.7,3.1-8.8,4.7-15.3,4.7h-7v32.3h-15
			V296.2z M207.9,327.8c3.2,0,5.4-0.8,6.5-2.3s1.6-4.2,1.6-8.1c0.1-2-0.1-4-0.6-5.9c-0.3-1.4-1.2-2.6-2.3-3.4
			c-1.6-0.9-3.5-1.3-5.4-1.2h-5.3v20.9L207.9,327.8z"/>
		<path class="st0" d="M257,341.2l-14.5-44.9h14.2l8,26.2l7.3-26.2h13.9l-14.3,44.9v29.5H257V341.2z"/>
	</g>
	<g>
		<path class="st0" d="M3.7,220.9h9.8l5.6,28.6l5.9-28.6h9.5l0.9,45.4h-6.7l-0.7-30.8L22,266.3h-5.7l-6-31l-0.7,31H2.9L3.7,220.9z"
			/>
		<path class="st0" d="M56.9,220.9h10.2l8.7,45.4h-8.5l-1.7-10h-7.1l-1.7,10h-8.7L56.9,220.9z M64.8,250.6l-2.7-18.3l-2.7,18.3H64.8
			z"/>
		<path class="st0" d="M88.9,220.9h9.2v19.2l8.2-19.2h9l-8.5,20.4l9.2,25h-9.4l-7-20.3l-1.5,2.4v17.8h-9.2V220.9z"/>
		<path class="st0" d="M128.2,220.9H148v6.4h-10.6v12h8.2v6.4h-8.2V260h10.7v6.3h-19.9V220.9z"/>
		<path class="st0" d="M224.6,265.2c-1.9-1.1-3.3-2.9-4-5c-0.9-2.7-1.3-5.5-1.2-8.3v-31h9.1v32.3c-0.1,1.7,0.2,3.5,0.8,5.1
			c0.5,1.2,1.6,1.8,3.2,1.8s2.7-0.6,3.2-1.8c0.6-1.6,0.9-3.4,0.8-5.1v-32.3h9.1v31c0.1,2.8-0.3,5.6-1.2,8.3c-0.7,2.1-2.2,3.8-4.1,5
			c-1.9,1.1-4.6,1.7-7.9,1.7C229.1,266.9,226.5,266.3,224.6,265.2z"/>
		<path class="st0" d="M262.8,263.5c-2.1-2.3-3.2-5.9-3.4-10.7l7.9-1.3c0.1,2.9,0.5,5,1.2,6.4c0.6,1.3,1.9,2.1,3.3,2
			c0.9,0.1,1.8-0.3,2.4-1c0.5-0.8,0.8-1.7,0.7-2.7c0.1-1.6-0.4-3.2-1.2-4.6c-1.1-1.5-2.3-2.9-3.8-4.1l-4.7-4.1
			c-1.7-1.4-3.2-3.1-4.4-5.1c-1-2-1.5-4.2-1.4-6.4c0-3.7,1.1-6.5,3.3-8.5c2.2-2,5.2-3,9.1-3c4.1,0,6.9,1.2,8.5,3.6
			c1.7,2.7,2.6,5.8,2.7,9l-8,1.2c0-1.8-0.3-3.6-0.8-5.3c-0.4-1.1-1.5-1.8-2.6-1.7c-1-0.1-1.9,0.4-2.5,1.1c-0.6,0.8-0.9,1.8-0.9,2.7
			c-0.1,1.3,0.3,2.7,1,3.8c0.9,1.2,1.9,2.4,3.1,3.4l4.6,4c2,1.8,3.7,3.8,5.1,6.1c1.3,2.2,1.9,4.8,1.8,7.3c0,2-0.5,4-1.5,5.8
			c-1,1.7-2.4,3.1-4.1,4c-1.9,1-4,1.5-6.1,1.5C268.1,266.9,264.9,265.8,262.8,263.5z"/>
		<path class="st0" d="M163.7,263.5c-2.1-2.3-3.2-5.9-3.4-10.7l7.9-1.3c0.1,2.9,0.5,5,1.2,6.4c0.6,1.3,1.9,2.1,3.3,2
			c0.9,0.1,1.8-0.3,2.4-1c0.5-0.8,0.8-1.7,0.7-2.7c0.1-1.6-0.4-3.2-1.2-4.6c-1.1-1.5-2.3-2.9-3.8-4.1l-4.7-4.1
			c-1.7-1.4-3.2-3.1-4.4-5.1c-1-2-1.5-4.2-1.4-6.4c0-3.7,1.1-6.5,3.3-8.5s5.2-3,9.1-3c4.1,0,6.9,1.2,8.5,3.6c1.7,2.7,2.6,5.8,2.7,9
			l-8,1.2c0-1.8-0.3-3.6-0.8-5.3c-0.4-1.1-1.5-1.8-2.6-1.7c-1-0.1-1.9,0.4-2.5,1.1c-0.6,0.8-0.9,1.8-0.9,2.7c-0.1,1.3,0.3,2.7,1,3.8
			c0.9,1.2,1.9,2.4,3.1,3.4l4.6,4c2,1.8,3.7,3.8,5.1,6.1c1.3,2.2,1.9,4.8,1.8,7.3c0,2-0.5,4-1.5,5.8c-1,1.7-2.4,3.1-4.1,4
			c-1.9,1-4,1.5-6.1,1.5C169,266.9,165.8,265.8,163.7,263.5z"/>
	</g>
</g>
</svg>
